<svg xmlns="http://www.w3.org/2000/svg" xmlns:xlink="http://www.w3.org/1999/xlink" width="890" height="524.2"><rect width="890" height="524.2" rx="5" ry="5" class="a"/><svg y="0%" x="0%"><circle cx="20" cy="20" r="6" fill="#ff5f58"/><circle cx="40" cy="20" r="6" fill="#ffbd2e"/><circle cx="60" cy="20" r="6" fill="#18c132"/></svg><svg height="434.2" viewBox="0 0 82 43.42" width="820" x="30" xmlns="http://www.w3.org/2000/svg" xmlns:xlink="http://www.w3.org/1999/xlink" y="65"><style>@keyframes m{0%{transform:translateX(0)}3.5%{transform:translateX(-82px)}5.9%{transform:translateX(-164px)}6.9%{transform:translateX(-246px)}7.4%{transform:translateX(-328px)}7.8%{transform:translateX(-410px)}8.8%{transform:translateX(-492px)}9.8%{transform:translateX(-574px)}10.6%{transform:translateX(-656px)}11.3%{transform:translateX(-738px)}11.8%{transform:translateX(-820px)}12.5%{transform:translateX(-902px)}13.3%{transform:translateX(-984px)}14.3%{transform:translateX(-1066px)}15%{transform:translateX(-1148px)}15.8%{transform:translateX(-1230px)}19.9%{transform:translateX(-1312px)}22.8%{transform:translateX(-1394px)}27.6%{transform:translateX(-1476px)}32.3%{transform:translateX(-1558px)}37%{transform:translateX(-1640px)}39.3%{transform:translateX(-1722px)}42.3%{transform:translateX(-1804px)}47%{transform:translateX(-1886px)}51.7%{transform:translateX(-1968px)}54.1%{transform:translateX(-2050px)}57%{transform:translateX(-2132px)}61.7%{transform:translateX(-2214px)}66.4%{transform:translateX(-2296px)}68.8%{transform:translateX(-2378px)}71.7%{transform:translateX(-2460px)}76.4%{transform:translateX(-2542px)}81.2%{transform:translateX(-2624px)}83.5%{transform:translateX(-2706px)}85.9%{transform:translateX(-2788px)}to{transform:translateX(-2870px)}}.a{fill:#0a1526}.f{fill:#00d4ff;font-weight:700;white-space:pre}.g{fill:#b9c0cb}.g,.h,.i,.j{white-space:pre}.h{fill:#f59e0b;font-weight:700}.i,.j{fill:#00d4ff}.j{fill:#bcbcbc}</style><g font-family="Monaco,Consolas,Menlo,'Bitstream Vera Sans Mono','Powerline Symbols',monospace" font-size="1.67"><defs><symbol id="1"><text y="1.67" class="f">amelie@kali:~$</text></symbol><symbol id="2"><text y="1.67" class="f">amelie@kali:~$</text><text x="15.03" y="1.67" class="g">cat</text></symbol><symbol id="3"><text y="1.67" class="f">amelie@kali:~$</text><text x="15.03" y="1.67" class="g">cat</text><text x="19.038" y="1.67" class="g">focus.txt</text></symbol><symbol id="4"><text y="1.67" class="h">[LEARNING]</text></symbol><symbol id="5"><text y="1.67" class="i">→</text><text x="2.004" y="1.67" class="j">M2</text><text x="5.01" y="1.67" class="j">Expert</text><text x="12.024" y="1.67" class="j">Réseaux</text><text x="20.04" y="1.67" class="j">et</text><text x="23.046" y="1.67" class="j">Infrastructures</text><text x="39.078" y="1.67" class="j">Sécurisées</text></symbol><symbol id="6"><text y="1.67" class="i">→</text><text x="2.004" y="1.67" class="j">Élaboration</text><text x="14.028" y="1.67" class="j">de</text><text x="17.034" y="1.67" class="j">PSSI</text><text x="22.044" y="1.67" class="j">&amp;</text><text x="24.048" y="1.67" class="j">pilotage</text><text x="33.066" y="1.67" class="j">de</text><text x="36.072" y="1.67" class="j">la</text><text x="39.078" y="1.67" class="j">conduite</text><text x="48.096" y="1.67" class="j">du</text><text x="51.102" y="1.67" class="j">changement</text></symbol><symbol id="7"><text y="1.67" class="i">→</text><text x="2.004" y="1.67" class="j">Coordination</text><text x="15.03" y="1.67" class="j">SOC</text><text x="19.038" y="1.67" class="j">/</text><text x="21.042" y="1.67" class="j">RSSI</text></symbol><symbol id="8"><text y="1.67" class="h">[BUILDING]</text></symbol><symbol id="9"><text y="1.67" class="i">→</text><text x="2.004" y="1.67" class="j">Lab</text><text x="6.012" y="1.67" class="j">Wazuh</text><text x="12.024" y="1.67" class="j">+</text><text x="14.028" y="1.67" class="j">Suricata</text><text x="23.046" y="1.67" class="j">+</text><text x="25.05" y="1.67" class="j">SOAR</text><text x="30.06" y="1.67" class="j">(TheHive/Cortex/Shuffle)</text></symbol><symbol id="10"><text y="1.67" class="i">→</text><text x="2.004" y="1.67" class="j">Environnement</text><text x="16.032" y="1.67" class="j">Kubernetes</text><text x="27.054" y="1.67" class="j">de</text><text x="30.06" y="1.67" class="j">disaster</text><text x="39.078" y="1.67" class="j">recovery</text></symbol><symbol id="11"><text y="1.67" class="h">[EXPLORING]</text></symbol><symbol id="12"><text y="1.67" class="i">→</text><text x="2.004" y="1.67" class="j">Mise</text><text x="7.014" y="1.67" class="j">en</text><text x="10.02" y="1.67" class="j">œuvre</text><text x="16.032" y="1.67" class="j">ISO</text><text x="20.04" y="1.67" class="j">27001</text></symbol><symbol id="13"><text y="1.67" class="i">→</text><text x="2.004" y="1.67" class="j">Cartographie</text><text x="15.03" y="1.67" class="j">NIST</text><text x="20.04" y="1.67" class="j">CSF</text></symbol><symbol id="14"><text y="1.67" class="h">[OPEN_TO]</text></symbol><symbol id="15"><text y="1.67" class="i">→</text><text x="2.004" y="1.67" class="j">Contrat</text><text x="10.02" y="1.67" class="j">de</text><text x="13.026" y="1.67" class="j">professionnalisation</text><text x="34.068" y="1.67" class="j">GRC</text><text x="38.076" y="1.67" class="j">—</text><text x="40.08" y="1.67" class="j">fin</text><text x="44.088" y="1.67" class="j">septembre</text><text x="54.108" y="1.67" class="j">2026</text></symbol><symbol id="16"><text y="1.67" class="i">→</text><text x="2.004" y="1.67" class="j">Rythme</text><text x="9.018" y="1.67" class="j">3</text><text x="11.022" y="1.67" class="j">semaines</text><text x="20.04" y="1.67" class="j">entreprise</text><text x="31.062" y="1.67" class="j">/</text><text x="33.066" y="1.67" class="j">1</text><text x="35.07" y="1.67" class="j">semaine</text><text x="43.086" y="1.67" class="j">école</text></symbol><symbol id="a"><path fill="transparent" d="M0 0h82v21H0z"/></symbol><symbol id="b"><path fill="#6f7683" d="M0 0h1.102v2.171H0z"/></symbol></defs><path class="a" d="M0 0h82v43.42H0z"/><g style="animation-duration:8.489s;animation-iteration-count:infinite;animation-name:m;animation-timing-function:steps(1,end)"><svg width="2952"><svg><use xlink:href="#a"/><use xlink:href="#b" x="-.004"/></svg><svg x="82"><use xlink:href="#a"/><use xlink:href="#b" x="-.004"/></svg><svg x="164"><use xlink:href="#a"/><use xlink:href="#b" x="14.996"/><use xlink:href="#1"/></svg><svg x="246"><use xlink:href="#a"/><use xlink:href="#b" x="15.996"/><text y="1.67" class="f">amelie@kali:~$</text><text x="15.03" y="1.67" class="g">c</text></svg><svg x="328"><use xlink:href="#a"/><use xlink:href="#b" x="16.996"/><text y="1.67" class="f">amelie@kali:~$</text><text x="15.03" y="1.67" class="g">ca</text></svg><svg x="410"><use xlink:href="#a"/><use xlink:href="#b" x="17.996"/><use xlink:href="#2"/></svg><svg x="492"><use xlink:href="#a"/><use xlink:href="#b" x="18.996"/><use xlink:href="#2"/></svg><svg x="574"><use xlink:href="#a"/><use xlink:href="#b" x="19.996"/><text y="1.67" class="f">amelie@kali:~$</text><text x="15.03" y="1.67" class="g">cat</text><text x="19.038" y="1.67" class="g">f</text></svg><svg x="656"><use xlink:href="#a"/><use xlink:href="#b" x="20.996"/><text y="1.67" class="f">amelie@kali:~$</text><text x="15.03" y="1.67" class="g">cat</text><text x="19.038" y="1.67" class="g">fo</text></svg><svg x="738"><use xlink:href="#a"/><use xlink:href="#b" x="21.996"/><text y="1.67" class="f">amelie@kali:~$</text><text x="15.03" y="1.67" class="g">cat</text><text x="19.038" y="1.67" class="g">foc</text></svg><svg x="820"><use xlink:href="#a"/><use xlink:href="#b" x="22.996"/><text y="1.67" class="f">amelie@kali:~$</text><text x="15.03" y="1.67" class="g">cat</text><text x="19.038" y="1.67" class="g">focu</text></svg><svg x="902"><use xlink:href="#a"/><use xlink:href="#b" x="23.996"/><text y="1.67" class="f">amelie@kali:~$</text><text x="15.03" y="1.67" class="g">cat</text><text x="19.038" y="1.67" class="g">focus</text></svg><svg x="984"><use xlink:href="#a"/><use xlink:href="#b" x="24.996"/><text y="1.67" class="f">amelie@kali:~$</text><text x="15.03" y="1.67" class="g">cat</text><text x="19.038" y="1.67" class="g">focus.</text></svg><svg x="1066"><use xlink:href="#a"/><use xlink:href="#b" x="25.996"/><text y="1.67" class="f">amelie@kali:~$</text><text x="15.03" y="1.67" class="g">cat</text><text x="19.038" y="1.67" class="g">focus.t</text></svg><svg x="1148"><use xlink:href="#a"/><use xlink:href="#b" x="26.996"/><text y="1.67" class="f">amelie@kali:~$</text><text x="15.03" y="1.67" class="g">cat</text><text x="19.038" y="1.67" class="g">focus.tx</text></svg><svg x="1230"><use xlink:href="#a"/><use xlink:href="#b" x="27.996"/><use xlink:href="#3"/></svg><svg x="1312"><use xlink:href="#a"/><use xlink:href="#b" x="-.004" y="4.317"/><use xlink:href="#3"/></svg><svg x="1394"><use xlink:href="#a"/><use xlink:href="#b" x="-.004" y="6.488"/><use xlink:href="#3"/><use xlink:href="#4" y="4.342"/></svg><svg x="1476"><use xlink:href="#a"/><use xlink:href="#b" x="-.004" y="8.659"/><use xlink:href="#3"/><use xlink:href="#4" y="4.342"/><use xlink:href="#5" y="6.513"/></svg><svg x="1558"><use xlink:href="#a"/><use xlink:href="#b" x="-.004" y="10.83"/><use xlink:href="#3"/><use xlink:href="#4" y="4.342"/><use xlink:href="#5" y="6.513"/><use xlink:href="#6" y="8.684"/></svg><svg x="1640"><use xlink:href="#a"/><use xlink:href="#b" x="-.004" y="13.001"/><use xlink:href="#3"/><use xlink:href="#4" y="4.342"/><use xlink:href="#5" y="6.513"/><use xlink:href="#6" y="8.684"/><use xlink:href="#7" y="10.855"/></svg><svg x="1722"><use xlink:href="#a"/><use xlink:href="#b" x="-.004" y="15.172"/><use xlink:href="#3"/><use xlink:href="#4" y="4.342"/><use xlink:href="#5" y="6.513"/><use xlink:href="#6" y="8.684"/><use xlink:href="#7" y="10.855"/></svg><svg x="1804"><use xlink:href="#a"/><use xlink:href="#b" x="-.004" y="17.343"/><use xlink:href="#3"/><use xlink:href="#4" y="4.342"/><use xlink:href="#5" y="6.513"/><use xlink:href="#6" y="8.684"/><use xlink:href="#7" y="10.855"/><use xlink:href="#8" y="15.197"/></svg><svg x="1886"><use xlink:href="#a"/><use xlink:href="#b" x="-.004" y="19.514"/><use xlink:href="#3"/><use xlink:href="#4" y="4.342"/><use xlink:href="#5" y="6.513"/><use xlink:href="#6" y="8.684"/><use xlink:href="#7" y="10.855"/><use xlink:href="#8" y="15.197"/><use xlink:href="#9" y="17.368"/></svg><svg x="1968"><use xlink:href="#a"/><use xlink:href="#b" x="-.004" y="21.685"/><use xlink:href="#3"/><use xlink:href="#4" y="4.342"/><use xlink:href="#5" y="6.513"/><use xlink:href="#6" y="8.684"/><use xlink:href="#7" y="10.855"/><use xlink:href="#8" y="15.197"/><use xlink:href="#9" y="17.368"/><use xlink:href="#10" y="19.539"/></svg><svg x="2050"><use xlink:href="#a"/><use xlink:href="#b" x="-.004" y="23.856"/><use xlink:href="#3"/><use xlink:href="#4" y="4.342"/><use xlink:href="#5" y="6.513"/><use xlink:href="#6" y="8.684"/><use xlink:href="#7" y="10.855"/><use xlink:href="#8" y="15.197"/><use xlink:href="#9" y="17.368"/><use xlink:href="#10" y="19.539"/></svg><svg x="2132"><use xlink:href="#a"/><use xlink:href="#b" x="-.004" y="26.027"/><use xlink:href="#3"/><use xlink:href="#4" y="4.342"/><use xlink:href="#5" y="6.513"/><use xlink:href="#6" y="8.684"/><use xlink:href="#7" y="10.855"/><use xlink:href="#8" y="15.197"/><use xlink:href="#9" y="17.368"/><use xlink:href="#10" y="19.539"/><use xlink:href="#11" y="23.881"/></svg><svg x="2214"><use xlink:href="#a"/><use xlink:href="#b" x="-.004" y="28.198"/><use xlink:href="#3"/><use xlink:href="#4" y="4.342"/><use xlink:href="#5" y="6.513"/><use xlink:href="#6" y="8.684"/><use xlink:href="#7" y="10.855"/><use xlink:href="#8" y="15.197"/><use xlink:href="#9" y="17.368"/><use xlink:href="#10" y="19.539"/><use xlink:href="#11" y="23.881"/><use xlink:href="#12" y="26.052"/></svg><svg x="2296"><use xlink:href="#a"/><use xlink:href="#b" x="-.004" y="30.369"/><use xlink:href="#3"/><use xlink:href="#4" y="4.342"/><use xlink:href="#5" y="6.513"/><use xlink:href="#6" y="8.684"/><use xlink:href="#7" y="10.855"/><use xlink:href="#8" y="15.197"/><use xlink:href="#9" y="17.368"/><use xlink:href="#10" y="19.539"/><use xlink:href="#11" y="23.881"/><use xlink:href="#12" y="26.052"/><use xlink:href="#13" y="28.223"/></svg><svg x="2378"><use xlink:href="#a"/><use xlink:href="#b" x="-.004" y="32.54"/><use xlink:href="#3"/><use xlink:href="#4" y="4.342"/><use xlink:href="#5" y="6.513"/><use xlink:href="#6" y="8.684"/><use xlink:href="#7" y="10.855"/><use xlink:href="#8" y="15.197"/><use xlink:href="#9" y="17.368"/><use xlink:href="#10" y="19.539"/><use xlink:href="#11" y="23.881"/><use xlink:href="#12" y="26.052"/><use xlink:href="#13" y="28.223"/></svg><svg x="2460"><use xlink:href="#a"/><use xlink:href="#b" x="-.004" y="34.711"/><use xlink:href="#3"/><use xlink:href="#4" y="4.342"/><use xlink:href="#5" y="6.513"/><use xlink:href="#6" y="8.684"/><use xlink:href="#7" y="10.855"/><use xlink:href="#8" y="15.197"/><use xlink:href="#9" y="17.368"/><use xlink:href="#10" y="19.539"/><use xlink:href="#11" y="23.881"/><use xlink:href="#12" y="26.052"/><use xlink:href="#13" y="28.223"/><use xlink:href="#14" y="32.565"/></svg><svg x="2542"><use xlink:href="#a"/><use xlink:href="#b" x="-.004" y="36.882"/><use xlink:href="#3"/><use xlink:href="#4" y="4.342"/><use xlink:href="#5" y="6.513"/><use xlink:href="#6" y="8.684"/><use xlink:href="#7" y="10.855"/><use xlink:href="#8" y="15.197"/><use xlink:href="#9" y="17.368"/><use xlink:href="#10" y="19.539"/><use xlink:href="#11" y="23.881"/><use xlink:href="#12" y="26.052"/><use xlink:href="#13" y="28.223"/><use xlink:href="#14" y="32.565"/><use xlink:href="#15" y="34.736"/></svg><svg x="2624"><use xlink:href="#a"/><use xlink:href="#b" x="-.004" y="39.053"/><use xlink:href="#3"/><use xlink:href="#4" y="4.342"/><use xlink:href="#5" y="6.513"/><use xlink:href="#6" y="8.684"/><use xlink:href="#7" y="10.855"/><use xlink:href="#8" y="15.197"/><use xlink:href="#9" y="17.368"/><use xlink:href="#10" y="19.539"/><use xlink:href="#11" y="23.881"/><use xlink:href="#12" y="26.052"/><use xlink:href="#13" y="28.223"/><use xlink:href="#14" y="32.565"/><use xlink:href="#15" y="34.736"/><use xlink:href="#16" y="36.907"/></svg><svg x="2706"><use xlink:href="#a"/><use xlink:href="#b" x="-.004" y="41.224"/><use xlink:href="#3"/><use xlink:href="#4" y="4.342"/><use xlink:href="#5" y="6.513"/><use xlink:href="#6" y="8.684"/><use xlink:href="#7" y="10.855"/><use xlink:href="#8" y="15.197"/><use xlink:href="#9" y="17.368"/><use xlink:href="#10" y="19.539"/><use xlink:href="#11" y="23.881"/><use xlink:href="#12" y="26.052"/><use xlink:href="#13" y="28.223"/><use xlink:href="#14" y="32.565"/><use xlink:href="#15" y="34.736"/><use xlink:href="#16" y="36.907"/></svg><svg x="2788"><use xlink:href="#a"/><use xlink:href="#b" x="14.996" y="41.224"/><use xlink:href="#3"/><use xlink:href="#4" y="4.342"/><use xlink:href="#5" y="6.513"/><use xlink:href="#6" y="8.684"/><use xlink:href="#7" y="10.855"/><use xlink:href="#8" y="15.197"/><use xlink:href="#9" y="17.368"/><use xlink:href="#10" y="19.539"/><use xlink:href="#11" y="23.881"/><use xlink:href="#12" y="26.052"/><use xlink:href="#13" y="28.223"/><use xlink:href="#14" y="32.565"/><use xlink:href="#15" y="34.736"/><use xlink:href="#16" y="36.907"/><use xlink:href="#1" y="41.249"/></svg><svg x="2870"><use xlink:href="#a"/><use xlink:href="#b" x="14.996" y="41.224"/><use xlink:href="#3"/><use xlink:href="#4" y="4.342"/><use xlink:href="#5" y="6.513"/><use xlink:href="#6" y="8.684"/><use xlink:href="#7" y="10.855"/><use xlink:href="#8" y="15.197"/><use xlink:href="#9" y="17.368"/><use xlink:href="#10" y="19.539"/><use xlink:href="#11" y="23.881"/><use xlink:href="#12" y="26.052"/><use xlink:href="#13" y="28.223"/><use xlink:href="#14" y="32.565"/><use xlink:href="#15" y="34.736"/><use xlink:href="#16" y="36.907"/><use xlink:href="#1" y="41.249"/></svg></svg></g></g></svg></svg>