<svg xmlns="http://www.w3.org/2000/svg" xmlns:xlink="http://www.w3.org/1999/xlink" width="850" height="285.39"><rect width="850" height="285.39" rx="5" ry="5" class="a"/><svg y="0%" x="0%"><circle cx="20" cy="20" r="6" fill="#ff5f58"/><circle cx="40" cy="20" r="6" fill="#ffbd2e"/><circle cx="60" cy="20" r="6" fill="#18c132"/></svg><svg height="195.39" viewBox="0 0 78 19.539" width="780" x="30" xmlns="http://www.w3.org/2000/svg" xmlns:xlink="http://www.w3.org/1999/xlink" y="65"><style>@keyframes l{0%{transform:translateX(0)}6.4%{transform:translateX(-78px)}10.7%{transform:translateX(-156px)}12.1%{transform:translateX(-234px)}12.8%{transform:translateX(-312px)}14.5%{transform:translateX(-390px)}15.9%{transform:translateX(-468px)}17.3%{transform:translateX(-546px)}18.8%{transform:translateX(-624px)}19.7%{transform:translateX(-702px)}20.6%{transform:translateX(-780px)}21.6%{transform:translateX(-858px)}22.4%{transform:translateX(-936px)}23.5%{transform:translateX(-1014px)}24.2%{transform:translateX(-1092px)}25.6%{transform:translateX(-1170px)}26.2%{transform:translateX(-1248px)}27.5%{transform:translateX(-1326px)}35%{transform:translateX(-1404px)}44.6%{transform:translateX(-1482px)}54.2%{transform:translateX(-1560px)}63.8%{transform:translateX(-1638px)}70.1%{transform:translateX(-1716px)}74.4%{transform:translateX(-1794px)}to{transform:translateX(-1872px)}}.a{fill:#0a1526}.f,.g,.h,.i{white-space:pre}.f{fill:#00d4ff;font-weight:700}.g,.h,.i{fill:#b9c0cb}.h,.i{fill:#00d4ff}.i{fill:#bcbcbc}</style><g font-family="Monaco,Consolas,Menlo,'Bitstream Vera Sans Mono','Powerline Symbols',monospace" font-size="1.67"><defs><symbol id="1"><text y="1.67" class="f">amelie@kali:~$</text></symbol><symbol id="2"><text y="1.67" class="f">amelie@kali:~$</text><text x="15.03" y="1.67" class="g">cat</text></symbol><symbol id="3"><text y="1.67" class="f">amelie@kali:~$</text><text x="15.03" y="1.67" class="g">cat</text><text x="19.038" y="1.67" class="g">open_to.txt</text></symbol><symbol id="4"><text y="1.67" class="h">→</text><text x="2.004" y="1.67" class="i">Contrat</text><text x="10.02" y="1.67" class="i">de</text><text x="13.026" y="1.67" class="i">professionnalisation</text><text x="34.068" y="1.67" class="i">GRC</text><text x="38.076" y="1.67" class="i">—</text><text x="40.08" y="1.67" class="i">fin</text><text x="44.088" y="1.67" class="i">septembre</text><text x="54.108" y="1.67" class="i">2026</text></symbol><symbol id="5"><text y="1.67" class="h">→</text><text x="2.004" y="1.67" class="i">Missions</text><text x="11.022" y="1.67" class="i">gouvernance,</text><text x="24.048" y="1.67" class="i">risque,</text><text x="32.064" y="1.67" class="i">conformité</text><text x="43.086" y="1.67" class="i">SI</text></symbol><symbol id="6"><text y="1.67" class="h">→</text><text x="2.004" y="1.67" class="i">Environnements</text><text x="17.034" y="1.67" class="i">SOC</text><text x="21.042" y="1.67" class="i">/</text><text x="23.046" y="1.67" class="i">Cybersécurité</text><text x="37.074" y="1.67" class="i">opérationnelle</text></symbol><symbol id="a"><path fill="transparent" d="M0 0h78v10H0z"/></symbol><symbol id="b"><path fill="#6f7683" d="M0 0h1.102v2.171H0z"/></symbol></defs><path class="a" d="M0 0h78v19.539H0z"/><g style="animation-duration:4.69s;animation-iteration-count:infinite;animation-name:l;animation-timing-function:steps(1,end)"><svg width="1950"><svg><use xlink:href="#a"/><use xlink:href="#b" x="-.004"/></svg><svg x="78"><use xlink:href="#a"/><use xlink:href="#b" x="-.004"/></svg><svg x="156"><use xlink:href="#a"/><use xlink:href="#b" x="14.996"/><use xlink:href="#1"/></svg><svg x="234"><use xlink:href="#a"/><use xlink:href="#b" x="15.996"/><text y="1.67" class="f">amelie@kali:~$</text><text x="15.03" y="1.67" class="g">c</text></svg><svg x="312"><use xlink:href="#a"/><use xlink:href="#b" x="16.996"/><text y="1.67" class="f">amelie@kali:~$</text><text x="15.03" y="1.67" class="g">ca</text></svg><svg x="390"><use xlink:href="#a"/><use xlink:href="#b" x="17.996"/><use xlink:href="#2"/></svg><svg x="468"><use xlink:href="#a"/><use xlink:href="#b" x="18.996"/><use xlink:href="#2"/></svg><svg x="546"><use xlink:href="#a"/><use xlink:href="#b" x="19.996"/><text y="1.67" class="f">amelie@kali:~$</text><text x="15.03" y="1.67" class="g">cat</text><text x="19.038" y="1.67" class="g">o</text></svg><svg x="624"><use xlink:href="#a"/><use xlink:href="#b" x="20.996"/><text y="1.67" class="f">amelie@kali:~$</text><text x="15.03" y="1.67" class="g">cat</text><text x="19.038" y="1.67" class="g">op</text></svg><svg x="702"><use xlink:href="#a"/><use xlink:href="#b" x="21.996"/><text y="1.67" class="f">amelie@kali:~$</text><text x="15.03" y="1.67" class="g">cat</text><text x="19.038" y="1.67" class="g">ope</text></svg><svg x="780"><use xlink:href="#a"/><use xlink:href="#b" x="22.996"/><text y="1.67" class="f">amelie@kali:~$</text><text x="15.03" y="1.67" class="g">cat</text><text x="19.038" y="1.67" class="g">open</text></svg><svg x="858"><use xlink:href="#a"/><use xlink:href="#b" x="23.996"/><text y="1.67" class="f">amelie@kali:~$</text><text x="15.03" y="1.67" class="g">cat</text><text x="19.038" y="1.67" class="g">open_</text></svg><svg x="936"><use xlink:href="#a"/><use xlink:href="#b" x="24.996"/><text y="1.67" class="f">amelie@kali:~$</text><text x="15.03" y="1.67" class="g">cat</text><text x="19.038" y="1.67" class="g">open_t</text></svg><svg x="1014"><use xlink:href="#a"/><use xlink:href="#b" x="25.996"/><text y="1.67" class="f">amelie@kali:~$</text><text x="15.03" y="1.67" class="g">cat</text><text x="19.038" y="1.67" class="g">open_to</text></svg><svg x="1092"><use xlink:href="#a"/><use xlink:href="#b" x="26.996"/><text y="1.67" class="f">amelie@kali:~$</text><text x="15.03" y="1.67" class="g">cat</text><text x="19.038" y="1.67" class="g">open_to.</text></svg><svg x="1170"><use xlink:href="#a"/><use xlink:href="#b" x="27.996"/><text y="1.67" class="f">amelie@kali:~$</text><text x="15.03" y="1.67" class="g">cat</text><text x="19.038" y="1.67" class="g">open_to.t</text></svg><svg x="1248"><use xlink:href="#a"/><use xlink:href="#b" x="28.996"/><text y="1.67" class="f">amelie@kali:~$</text><text x="15.03" y="1.67" class="g">cat</text><text x="19.038" y="1.67" class="g">open_to.tx</text></svg><svg x="1326"><use xlink:href="#a"/><use xlink:href="#b" x="29.996"/><use xlink:href="#3"/></svg><svg x="1404"><use xlink:href="#a"/><use xlink:href="#b" x="-.004" y="2.146"/><use xlink:href="#3"/></svg><svg x="1482"><use xlink:href="#a"/><use xlink:href="#b" x="-.004" y="4.317"/><use xlink:href="#3"/><use xlink:href="#4" y="2.171"/></svg><svg x="1560"><use xlink:href="#a"/><use xlink:href="#b" x="-.004" y="6.488"/><use xlink:href="#3"/><use xlink:href="#4" y="2.171"/><use xlink:href="#5" y="4.342"/></svg><svg x="1638"><use xlink:href="#a"/><use xlink:href="#b" x="-.004" y="8.659"/><use xlink:href="#3"/><use xlink:href="#4" y="2.171"/><use xlink:href="#5" y="4.342"/><use xlink:href="#6" y="6.513"/></svg><svg x="1716"><use xlink:href="#a"/><use xlink:href="#b" x="-.004" y="8.659"/><use xlink:href="#3"/><use xlink:href="#4" y="2.171"/><use xlink:href="#5" y="4.342"/><use xlink:href="#6" y="6.513"/></svg><svg x="1794"><use xlink:href="#a"/><use xlink:href="#b" x="14.996" y="8.659"/><use xlink:href="#3"/><use xlink:href="#4" y="2.171"/><use xlink:href="#5" y="4.342"/><use xlink:href="#6" y="6.513"/><use xlink:href="#1" y="8.684"/></svg><svg x="1872"><use xlink:href="#a"/><use xlink:href="#b" x="14.996" y="8.659"/><use xlink:href="#3"/><use xlink:href="#4" y="2.171"/><use xlink:href="#5" y="4.342"/><use xlink:href="#6" y="6.513"/><use xlink:href="#1" y="8.684"/></svg></svg></g></g></svg></svg>